<svg width="560" height="583" viewBox="0 0 560 583" fill="none" xmlns="http://www.w3.org/2000/svg">
<g filter="url(#filter0_d)">
<path d="M210.917 548.33C181.282 558.83 151.359 563.681 119.442 557.617C83.8671 550.855 53.0108 520.411 35.5758 490.051C29.0978 478.774 23.9406 466.173 24.6145 453.188C26.1825 423.191 54.5214 419.839 78.5767 424.691C92.1367 427.419 104.588 433.63 116.897 439.782C137.334 450.001 161.307 455.027 179.629 469.193C185.778 473.959 190.395 479.687 197.539 483.155C208.652 488.554 221.337 491.103 232.752 496.017C242.497 500.233 253.39 507.169 253.405 517.783C253.406 528.668 242.05 535.605 232.072 539.938C225.008 543.025 217.976 545.841 210.917 548.33Z" fill="url(#paint0_linear)"/>
<path d="M101.834 161.404C150.381 89.8601 250.768 61.1338 332.138 88.0328C371.375 101.011 404.259 128.034 434.588 156.086C461.323 180.811 487.259 207.478 505.517 239.263C517.983 260.958 526.905 286.965 533.206 311.245C542.626 347.598 534.071 394.44 487.078 391.008C476.051 390.204 466.513 386.239 456.201 382.77C447.86 379.958 439.686 381.645 431.025 380.271C409.227 376.82 388.228 368.794 368.37 359.394C327.902 340.219 290.925 314.168 249.307 297.365C215.2 283.614 178.777 276.513 142.002 276.448C126.488 276.423 110.175 277.509 96.2972 270.571C62.0915 253.457 77.4735 207.31 90.2482 181.351C93.6326 174.436 97.5042 167.77 101.834 161.404Z" fill="url(#paint1_linear)"/>
<path d="M482.473 172.203C490.465 179.442 521.867 199.204 522.472 176.013C522.615 170.236 519.994 164.626 516.428 160.396C512.348 155.539 507.722 152.992 504.536 147.334C500.638 140.503 496.2 134.082 491.281 128.156C481.224 115.821 469.483 104.424 455.236 99.3455C445.244 95.7881 428.326 96.6827 423.58 109.489C416.665 128.132 446.232 131.547 455.25 138.341C463.807 144.772 468.654 155.822 475.433 164.603C477.575 167.372 479.932 169.917 482.473 172.203Z" fill="url(#paint2_linear)"/>
<path d="M334.678 149.528C351.607 159.495 364.306 174.414 379.741 186.43C405.438 206.431 440.661 210.523 470.13 224.433C500.178 238.624 522.868 260.68 533.126 292.468C546.379 333.499 547.639 382.294 536.379 424.477C523.979 470.91 494.859 501.753 452.282 522.322C409.73 542.879 362.591 552.472 315.576 554.451C311.039 554.646 306.51 554.751 301.963 554.78C199.827 555.373 63.8782 519.423 29.1052 409.703C28.7865 408.701 28.481 407.698 28.1747 406.682C24.5916 394.458 22.4848 381.849 21.8994 369.124C19.7122 324.013 27.6075 274.222 43.4231 231.932C54.0605 203.461 76.9665 179.388 101.103 162.235C135.015 138.138 176.393 131.988 217.575 129.097C248.071 126.957 282.369 126.175 311.207 137.84C319.312 141.144 327.157 145.051 334.678 149.528Z" fill="url(#paint3_linear)"/>
<path d="M405.811 545.048C274.896 583.113 165.801 546.407 127.618 523.296L92.1619 496.106L104.435 475.714L180.802 468.916L307.625 462.119L409.902 482.511L516.27 447.165H527.179C510.815 502.632 439.449 535.531 405.811 545.048Z" fill="#FB4C47"/>
<path d="M137.981 492.874H463.565C463.565 492.874 474.964 305.674 433.485 278.281C392.011 250.894 198.045 256.614 155.055 280.007C112.065 303.405 137.981 492.874 137.981 492.874Z" fill="#FB4C47"/>
<path d="M192.187 238.839C191.717 238.839 191.242 238.686 190.846 238.358C189.952 237.628 169.077 220.056 180.493 184.642C184.487 172.258 188.402 163.489 191.848 155.744C198.065 141.81 202.557 131.734 203.411 110.208C203.456 109.037 204.627 108.16 205.612 108.166C206.783 108.217 207.694 109.201 207.648 110.372C206.766 132.719 201.889 143.643 195.723 157.475C192.317 165.118 188.453 173.779 184.533 185.943C174.038 218.495 192.736 234.415 193.539 235.076C194.439 235.823 194.569 237.158 193.828 238.058C193.409 238.573 192.798 238.839 192.187 238.839Z" fill="#000C3E"/>
<path d="M307.764 27.6267C307.216 42.3244 294.854 53.7861 280.157 53.2374C265.465 52.6886 253.997 40.3274 254.546 25.6354C255.1 10.9377 267.456 -0.529685 282.154 0.0190767C296.846 0.573489 308.313 12.9291 307.764 27.6267Z" fill="#000C3E"/>
<path d="M189.805 228.497C189.805 228.497 197.618 244.609 229.513 250.272C261.415 255.94 286.449 244.4 311.075 253.332C335.701 262.26 371.28 250.623 378.335 240.275C385.384 229.928 383.907 115.339 364.491 96.1215C345.07 76.9093 243.329 60.8708 221.282 83.353C199.236 105.841 175.82 215.593 189.805 228.497Z" fill="#000C3E"/>
<path d="M373.981 138.091C372.165 186.518 331.438 224.309 283.011 222.493C234.585 220.677 196.794 179.95 198.61 131.517C200.426 83.0908 241.153 45.3056 289.579 47.1216C338.006 48.932 375.797 89.6646 373.981 138.091Z" fill="#000C3E"/>
<path d="M322.287 211.459C322.287 211.459 327.984 279.794 322.287 287.386C316.59 294.978 280.525 289.287 271.037 287.386C261.544 285.491 257.748 211.459 263.44 211.459C269.137 211.459 321.195 196.224 322.287 211.459Z" fill="#FFCEB0"/>
<path d="M214.651 131.516C214.651 131.516 218.26 238.026 290.267 242.626C362.278 247.219 362.205 97.1537 336.147 82.8803C310.084 68.6069 201.339 71.2828 214.651 131.516Z" fill="#FFCEB0"/>
<path d="M288.587 154.315C288.587 154.315 302.34 187.1 298.799 189.272C295.263 191.444 284.904 191.054 282.115 188.644C279.326 186.234 282.964 150.65 288.587 154.315Z" fill="#EE9B68"/>
<path d="M267.021 165.288C266.84 169.022 263.667 171.896 259.933 171.715C256.205 171.534 253.325 168.36 253.506 164.626C253.687 160.898 256.861 158.018 260.595 158.199C264.323 158.38 267.202 161.554 267.021 165.288Z" fill="#41294A"/>
<path d="M325.108 162.1C324.927 165.834 321.753 168.708 318.02 168.527C314.291 168.346 311.412 165.172 311.593 161.438C311.774 157.71 314.948 154.831 318.681 155.012C322.41 155.193 325.289 158.366 325.108 162.1Z" fill="#41294A"/>
<path d="M271.35 74.7143C271.35 74.7143 245.53 87.2 240.619 110.638C235.703 134.082 238.249 194.101 210.89 191.345C210.89 191.345 157.921 72.5646 271.35 74.7143Z" fill="#000C3E"/>
<path d="M284.96 75.2248C282.618 76.905 311.583 76.8315 328.142 96.9093C344.707 116.981 348.639 167.156 351.196 168.084C353.758 169.017 363.987 105.916 345.827 86.9581C327.673 68.0004 298.288 65.6809 284.96 75.2248Z" fill="#000C3E"/>
<path d="M264.442 232.911C264.442 232.911 292.457 248.842 321.547 233.952C321.547 233.952 323.81 251.835 321.547 255.959C319.284 260.083 273.211 263.031 264.142 242.704C264.142 242.704 261.823 232.029 264.442 232.911Z" fill="#EE9B68"/>
<path d="M344.988 172.362C344.988 172.362 351.885 145.699 363.906 155.187C375.934 164.68 365.055 192.542 353.169 195.071C341.283 197.599 338.42 186.109 344.988 172.362Z" fill="#FFCEB0"/>
<path d="M231.417 168.106C231.417 168.106 226.535 141.002 213.834 149.567C201.133 158.126 209.896 186.73 221.562 190.141C233.227 193.547 236.933 182.306 231.417 168.106Z" fill="#FFCEB0"/>
<path d="M315.647 138.005C315.647 138.005 328.535 131.59 336.149 141.428C342.848 150.072 327.267 142.825 321.44 143.787C315.619 144.749 307.976 144.087 315.647 138.005Z" fill="#41294A"/>
<path d="M265.004 139.247C265.004 139.247 252.094 132.877 244.513 142.743C237.849 151.41 253.401 144.107 259.228 145.046C265.055 145.991 272.698 145.301 265.004 139.247Z" fill="#41294A"/>
<path d="M259.699 150.119C248.571 150.119 239.531 158.837 239.112 169.971C238.909 175.469 240.855 180.725 244.606 184.759C248.351 188.798 253.442 191.135 258.947 191.338L259.739 191.355C270.867 191.355 279.907 182.637 280.32 171.509C280.529 166.01 278.578 160.749 274.833 156.716C271.087 152.676 265.996 150.34 260.491 150.136L259.699 150.119ZM259.739 194.184L258.839 194.167C252.582 193.935 246.789 191.276 242.529 186.688C238.269 182.094 236.052 176.12 236.284 169.857C236.759 157.208 247.044 147.29 259.699 147.29L260.599 147.307C266.856 147.539 272.649 150.198 276.909 154.786C281.163 159.38 283.386 165.354 283.149 171.623C282.679 184.272 272.394 194.184 259.739 194.184Z" fill="#FFFCF6"/>
<path d="M318.199 146.831C307.077 146.831 298.037 155.549 297.618 166.683C297.409 172.182 299.36 177.437 303.106 181.471C306.851 185.51 311.948 187.847 317.447 188.051L318.239 188.068C329.373 188.068 338.407 179.35 338.826 168.216C339.035 162.717 337.083 157.462 333.338 153.428C329.593 149.389 324.496 147.052 318.991 146.848L318.199 146.831ZM318.239 190.896L317.345 190.879C311.082 190.647 305.289 187.988 301.029 183.4C296.769 178.807 294.552 172.832 294.789 166.57C295.265 153.92 305.55 144.003 318.199 144.003L319.099 144.02C325.356 144.252 331.149 146.911 335.409 151.499C339.669 156.092 341.886 162.067 341.655 168.329C341.179 180.979 330.894 190.896 318.239 190.896Z" fill="#FFFCF6"/>
<path d="M238.39 166.625C238.214 166.625 238.039 166.592 237.869 166.524L229.293 163.141C228.568 162.852 228.212 162.032 228.495 161.308C228.783 160.578 229.609 160.227 230.333 160.51L238.91 163.899C239.634 164.182 239.991 165.007 239.702 165.732C239.487 166.286 238.955 166.625 238.39 166.625Z" fill="#FFFCF6"/>
<path d="M339.43 162.884C338.819 162.884 338.247 162.483 338.072 161.855C337.857 161.114 338.293 160.327 339.045 160.112L350.954 156.701C351.678 156.469 352.487 156.916 352.702 157.674C352.917 158.421 352.481 159.207 351.729 159.422L339.815 162.828C339.69 162.867 339.554 162.884 339.43 162.884Z" fill="#FFFCF6"/>
<path d="M280.086 69.1218C280.086 69.1218 283.333 126.855 299.247 132.093C315.161 137.338 354.287 135.901 356.177 129.587C358.066 123.268 325.836 72.454 302.709 64.3074C262.152 50.0171 227.145 115.959 231.772 131.844C236.4 147.736 271.249 133.83 278.683 131.788C286.122 129.746 278.598 80.5326 280.086 69.1218Z" fill="#000C3E"/>
<g opacity="0.210007">
<g opacity="0.210007">
<path opacity="0.210007" d="M240.459 189.844C240.459 189.844 277.317 169.727 293.208 173.042C309.094 176.357 337.092 177.477 338.223 183.231C339.36 188.984 302.645 185.533 291.307 186.365C279.964 187.196 236.222 199.19 240.459 189.844Z" fill="#DB5C5D"/>
</g>
</g>
<path d="M261.174 177.061C260.319 177.061 259.51 176.541 259.188 175.692C258.775 174.595 259.324 173.373 260.421 172.954C263.714 171.71 264.444 170.697 264.449 170.691C264.857 169.594 266.016 169.147 267.114 169.565C268.217 169.967 268.715 171.314 268.308 172.417C267.974 173.322 266.701 175.11 261.926 176.926C261.677 177.016 261.423 177.061 261.174 177.061Z" fill="#EE9B68"/>
<path d="M316.87 175.531C315.62 175.531 313.651 175.118 310.641 173.563C309.6 173.031 309.193 171.747 309.73 170.706C310.268 169.67 311.546 169.257 312.587 169.795C315.733 171.419 316.972 171.288 316.966 171.277C318.058 170.87 319.155 171.419 319.585 172.51C320.015 173.597 319.348 174.875 318.262 175.305C317.956 175.424 317.509 175.531 316.87 175.531Z" fill="#EE9B68"/>
<path d="M281.744 171.735C281.014 171.735 280.392 171.169 280.335 170.434C280.279 169.653 280.856 168.974 281.636 168.912L296.147 167.781C296.951 167.656 297.613 168.301 297.669 169.076C297.731 169.857 297.149 170.536 296.368 170.598L281.857 171.73C281.817 171.735 281.784 171.735 281.744 171.735Z" fill="#FFFCF6"/>
<path d="M264.517 53.2751C264.189 53.2751 263.855 53.1959 263.55 53.0375C255.76 49.0209 251.121 43.4201 249.752 36.3937C246.742 20.9719 260.755 4.44126 261.349 3.7454C262.118 2.85721 263.459 2.74972 264.342 3.51911C265.23 4.28285 265.337 5.61797 264.574 6.50617C264.438 6.66458 251.296 22.1939 253.915 35.5904C255.03 41.276 258.922 45.8754 265.49 49.2698C266.531 49.8072 266.944 51.0858 266.401 52.1267C266.028 52.8565 265.287 53.2751 264.517 53.2751Z" fill="#000C3E"/>
<path d="M295.231 58.0157C294.625 58.0157 294.02 57.7555 293.601 57.252C292.849 56.3581 292.968 55.023 293.867 54.2706C294.026 54.1348 309.538 40.9702 309.153 27.3305C308.995 21.543 305.906 16.3609 299.983 11.9369C299.044 11.2354 298.851 9.90596 299.553 8.96685C300.249 8.03339 301.595 7.8467 302.523 8.53689C309.544 13.7812 313.204 20.0665 313.396 27.223C313.832 42.9277 297.29 56.9352 296.588 57.5235C296.192 57.8573 295.706 58.0157 295.231 58.0157Z" fill="#000C3E"/>
<path d="M371.272 237.05C370.638 237.05 370.01 236.767 369.592 236.229C368.873 235.302 369.037 233.972 369.965 233.254C370.695 232.682 387.87 218.98 383.378 195.899C381.619 186.864 378.389 176.856 374.972 166.271C369.009 147.806 362.848 128.707 362.741 110.269C362.735 109.098 363.68 108.142 364.851 108.137H364.862C366.027 108.137 366.978 109.081 366.983 110.247C367.085 128.028 373.144 146.804 379.005 164.97C382.468 175.679 385.737 185.8 387.542 195.09C392.543 220.785 373.382 235.975 372.567 236.609C372.177 236.908 371.724 237.05 371.272 237.05Z" fill="#000C3E"/>
<path d="M378.342 140.283C378.257 140.283 378.172 140.278 378.082 140.266C376.922 140.125 376.096 139.067 376.238 137.901C379.1 114.576 374.648 95.4943 363 81.1926C344.234 58.1334 312.893 55.3104 312.576 55.2935C311.405 55.1916 310.539 54.1677 310.635 53.0023C310.732 51.8312 311.75 50.9826 312.927 51.0618C314.279 51.1693 346.395 54.0715 366.292 78.5111C378.693 93.7405 383.456 113.903 380.447 138.422C380.317 139.491 379.4 140.283 378.342 140.283Z" fill="#000C3E"/>
<path d="M292.189 222.746C289.971 222.746 287.555 222.678 285.377 222.599C283.821 222.537 282.605 221.219 282.662 219.657C282.724 218.096 284.099 217.021 285.598 216.942C290.322 217.128 296.126 217.157 297.269 216.868C298.751 216.348 300.318 217.111 300.844 218.582C301.376 220.047 300.567 221.688 299.102 222.214C298.004 222.616 295.294 222.746 292.189 222.746Z" fill="#DB5C5D"/>
<path d="M224.084 183.515C223.88 183.515 223.671 183.487 223.467 183.419C222.341 183.079 221.713 181.897 222.053 180.777C225.917 168.099 216.684 159.681 216.588 159.596C215.717 158.821 215.638 157.474 216.418 156.597C217.193 155.721 218.545 155.653 219.411 156.428C219.881 156.841 230.76 166.769 226.115 182.01C225.838 182.927 224.995 183.515 224.084 183.515Z" fill="#EE9B68"/>
<path d="M349.881 189.73C349.818 189.73 349.762 189.73 349.694 189.725C348.528 189.617 347.663 188.593 347.765 187.422C349.168 171.519 357.06 163.135 357.393 162.784C358.202 161.947 359.543 161.925 360.386 162.728C361.235 163.531 361.263 164.872 360.46 165.721C360.386 165.8 353.258 173.465 351.996 187.795C351.895 188.904 350.967 189.73 349.881 189.73Z" fill="#EE9B68"/>
<path d="M232.052 169.862C232.052 169.862 250.489 185.262 251.938 187.604C253.386 189.946 252.809 219.924 249.912 219.556C247.016 219.194 229.45 190.636 227.526 190.693C225.603 190.749 226.457 193.832 226.457 193.832C226.457 193.832 241.517 218.708 250.563 225.723C259.609 232.743 316.08 233.066 327.581 226.566C339.088 220.06 348.836 195.716 347.959 195.213C347.077 194.704 344.887 192.718 344.519 193.555C344.208 194.268 328.594 222.091 326.642 221.219C324.685 220.348 326.857 189.459 326.642 186.54C326.427 183.615 349.255 161.473 349.255 161.473L350.901 158.695L348.593 158.061C348.593 158.061 326.212 180.402 320.606 180.272C315 180.142 256.22 184.39 253.499 183.406C250.778 182.422 232.59 162.712 230.321 163.521C228.047 164.324 231.419 168.103 232.052 169.862Z" fill="#FFFCF6"/>
<path d="M224.686 284.302C224.686 284.302 272.858 341.893 310.009 326.483C347.155 311.072 381.959 269.299 363.284 263.754C344.609 258.216 195.483 261.129 224.686 284.302Z" fill="#FFCEB0"/>
<path d="M436.202 250.181C436.202 250.181 429.673 199.344 427.484 196.052C425.295 192.759 408.736 217.759 413.205 231.93C417.68 246.102 355.794 246.453 360.62 267.153C365.446 287.847 362.487 315.817 388.154 317.248C413.816 318.685 443.104 311.721 449.106 302.188C455.114 292.661 436.202 250.181 436.202 250.181Z" fill="url(#paint4_linear)"/>
<path d="M474.775 295.958C474.775 295.958 546.337 379.553 532.374 434.534C518.411 489.514 450.337 498.414 436.374 491.295C422.411 484.177 427.645 248.326 474.775 295.958Z" fill="#D9423D"/>
<path d="M143.66 285.501C143.66 285.501 56.8486 378.745 62.4832 461.975C67.1335 530.689 172.603 520.234 185.581 513.745C198.564 507.256 187.464 242.076 143.66 285.501Z" fill="#D9423D"/>
<path d="M441.156 262.266C441.156 262.266 528.296 434.627 504.36 464.136C480.423 493.644 437.875 497.016 420.897 472.542C410.98 458.258 424.829 332.037 410.188 316.565C395.547 301.092 436.511 254.148 441.156 262.266Z" fill="#FFCEB0"/>
<path d="M307.09 439.96C307.09 439.96 366.339 462.312 375.815 481.151C385.291 499.99 350.131 477.015 341.854 473.598C333.583 470.187 363.403 493.936 364.308 499.429C365.207 504.917 331.128 483.238 331.128 483.238C331.128 483.238 354.804 508.283 352.473 513.505C350.142 518.732 323.066 497.234 323.066 497.234C323.066 497.234 337.113 519.479 332.508 522.636C327.903 525.793 297.325 488.901 272.116 490.412C246.907 491.928 151.446 547.302 115.132 491.668C78.8118 436.034 109.457 409.552 179.783 410.327C250.109 411.108 287.561 431.768 307.09 439.96Z" fill="#FFCEB0"/>
<path d="M289.343 9.18598C288.71 9.18598 288.023 9.25952 287.278 9.4066C285.462 9.77111 284.285 10.6536 283.578 12.1852C280.429 19.0021 287.07 35.2386 291.815 44.8308C294.747 34.1898 298.261 16.4026 293.295 10.7975C292.339 9.71995 291.038 9.18598 289.343 9.18598ZM292.368 52.8372C291.578 52.8372 290.84 52.4119 290.449 51.7085C288.771 48.6997 274.216 21.9789 279.588 10.3434C280.88 7.5457 283.243 5.72957 286.418 5.09647C291.828 4.01894 294.935 6.01734 296.585 7.88143C305.212 17.6208 295.585 47.9068 294.459 51.328C294.184 52.1561 293.449 52.7445 292.579 52.8276C292.509 52.834 292.438 52.8372 292.368 52.8372Z" fill="#FFD310"/>
<path d="M318.974 19.9986C318.766 19.9986 318.555 20.0114 318.344 20.0433C310.917 21.0313 301.941 36.785 297.196 46.7514C307.061 42.5979 322.705 34.6651 324.784 27.4518C325.251 25.8275 324.937 24.3918 323.802 22.9274C322.274 20.961 320.691 19.9986 318.974 19.9986ZM292.979 52.9768C292.388 52.9768 291.809 52.7402 291.39 52.2989C290.786 51.6658 290.613 50.7386 290.949 49.9328C292.336 46.6107 304.864 17.4055 317.762 15.6852C320.234 15.3559 323.889 15.8739 327.271 20.2288C329.26 22.7867 329.861 25.706 329.008 28.6668C325.458 40.98 296.966 51.6658 293.73 52.8457C293.484 52.9352 293.232 52.9768 292.979 52.9768Z" fill="#FFD310"/>
<path d="M251.713 45.2126C262.39 52.0764 286.795 57.4149 305.861 45.2126" stroke="#FFD310" stroke-width="3.87"/>
</g>
<defs>
<filter id="filter0_d" x="3.66394" y="0.000183105" width="555.826" height="582.454" filterUnits="userSpaceOnUse" color-interpolation-filters="sRGB">
<feFlood flood-opacity="0" result="BackgroundImageFix"/>
<feColorMatrix in="SourceAlpha" type="matrix" values="0 0 0 0 0 0 0 0 0 0 0 0 0 0 0 0 0 0 127 0"/>
<feOffset dy="4"/>
<feGaussianBlur stdDeviation="2"/>
<feColorMatrix type="matrix" values="0 0 0 0 0 0 0 0 0 0 0 0 0 0 0 0 0 0 0.25 0"/>
<feBlend mode="normal" in2="BackgroundImageFix" result="effect1_dropShadow"/>
<feBlend mode="normal" in="SourceGraphic" in2="effect1_dropShadow" result="shape"/>
</filter>
<linearGradient id="paint0_linear" x1="40.9998" y1="428" x2="129.957" y2="582.798" gradientUnits="userSpaceOnUse">
<stop stop-color="#FFC5C6"/>
<stop offset="1" stop-color="#FFF6F6"/>
</linearGradient>
<linearGradient id="paint1_linear" x1="540" y1="252" x2="181.277" y2="18.6948" gradientUnits="userSpaceOnUse">
<stop stop-color="white"/>
<stop offset="1" stop-color="#FFD7D7"/>
</linearGradient>
<linearGradient id="paint2_linear" x1="523.287" y1="175.607" x2="405.22" y2="125.178" gradientUnits="userSpaceOnUse">
<stop stop-color="#FFBEBF"/>
<stop offset="1" stop-color="#FFFBFC"/>
</linearGradient>
<linearGradient id="paint3_linear" x1="555" y1="429" x2="42.9999" y2="225" gradientUnits="userSpaceOnUse">
<stop stop-color="#FFD7D7"/>
<stop offset="1" stop-color="#FFF8F8"/>
</linearGradient>
<linearGradient id="paint4_linear" x1="450" y1="328.979" x2="405.318" y2="195.756" gradientUnits="userSpaceOnUse">
<stop stop-color="#FFC4A0"/>
<stop offset="1" stop-color="#FFCEB0"/>
</linearGradient>
</defs>
</svg>
